<svg xmlns="http://www.w3.org/2000/svg" xmlns:xlink="http://www.w3.org/1999/xlink" viewBox="0 0 2644 912"><defs><style>.a{fill:none;}.b{fill:url(#a);}.c,.e{fill:#fff;}.d{clip-path:url(#b);}.e{opacity:0.2;}.f{fill:url(#c);}.g{fill:url(#d);}</style><linearGradient id="a" x1="906.03" y1="-38.52" x2="300.3" y2="852.87" gradientUnits="userSpaceOnUse"><stop offset="0" stop-color="#cd3b43"/><stop offset="1" stop-color="#51014b"/></linearGradient><clipPath id="b"><circle class="a" cx="569.98" cy="456" r="332.94"/></clipPath><linearGradient id="c" x1="569.63" y1="126.84" x2="476.1" y2="750.78" xlink:href="#a"/><linearGradient id="d" x1="669.46" y1="141.8" x2="575.94" y2="765.75" xlink:href="#a"/></defs><title>1.16.17</title><circle class="b" cx="569.98" cy="456" r="332.94"/><path class="c" d="M435.62,377.43h0l0,.19.07-.19Z"/><g class="d"><polygon class="e" points="871.43 458.82 767.16 714.02 711.98 583.78 762.29 460.85 735.11 460.85 694.13 563.09 653.56 460.85 626.78 460.85 677.09 583.78 622.32 714.02 517.64 458.82 465.07 335.01 519.21 204.78 623.48 459.98 654.32 459.98 532.2 171.91 507.04 171.91 446.59 313.28 385.73 171.91 360.98 171.91 239.26 459.98 269.69 459.98 374.37 204.78 429.14 335.01 378.83 457.95 405.61 457.95 446.18 355.71 487.21 458.82 608.93 746.88 633.68 746.88 694.54 604.47 754.99 746.88 780.14 746.88 902.27 458.82 871.43 458.82"/><path class="f" d="M594.31,586.09A105.43,105.43,0,0,1,570,588.93c-58.08,0-107.47-44.23-111-109.83-.45-8.22,4.19-29.5,6-37.19l-89.81-38.25c-9.16,23.17-14.19,53.68-14.19,80.11,0,112.55,96.5,203.79,209.05,203.79a203.24,203.24,0,0,0,75.55-14.47Z"/><path class="g" d="M570,269.11a203.05,203.05,0,0,0-84.84,18.45l50.58,85.89A105,105,0,0,1,570,367.74c51.41,0,105.91,43.11,111.17,96.15l-146.22.64,228,96.6c11.9-25.88,15.82-56.18,15.82-86.53C778.72,362,682.54,269.11,570,269.11Z"/><path class="c" d="M435.62,377.43h0l0,.19.07-.19Z"/><path class="c" d="M594.31,563.76A105.43,105.43,0,0,1,570,566.59c-58.08,0-107.47-44.23-111-109.83-.45-8.22,4.19-29.49,6-37.19l-89.81-38.25C366,404.49,360.93,435,360.93,461.43c0,112.55,96.5,203.79,209.05,203.79a203.24,203.24,0,0,0,75.55-14.47Z"/><path class="c" d="M570,246.78a203.05,203.05,0,0,0-84.84,18.45l50.58,85.89A105,105,0,0,1,570,345.41c51.41,0,105.91,43.11,111.17,96.15l-146.22.64,228,96.6c11.9-25.89,15.82-56.18,15.82-86.53C778.72,339.71,682.54,246.78,570,246.78Z"/></g><path class="c" d="M1358.25,577.23V401.09l-68.58,131.17h-28.11L1193,401.09V577.23h-51.72V311.14h55.47l78.7,151.41,79.45-151.41H1410V577.23Z"/><path class="c" d="M1549.79,581q-23.61,0-42.72-8.06a96.35,96.35,0,0,1-53.4-54.15,103.42,103.42,0,0,1-7.31-38.6,109.35,109.35,0,0,1,7.12-39.54A96.44,96.44,0,0,1,1474.09,408a98.4,98.4,0,0,1,32.79-22.3q19.3-8.24,43.29-8.25t42.91,8.25a98.82,98.82,0,0,1,32.23,22.11,94.14,94.14,0,0,1,20.24,32.23,107.39,107.39,0,0,1,6.93,38.23q0,4.88-.19,9.37a38.52,38.52,0,0,1-.94,7.5H1499.58a58.26,58.26,0,0,0,5.62,20.61,50.48,50.48,0,0,0,27.73,25.11,52.92,52.92,0,0,0,18.74,3.37,57.91,57.91,0,0,0,28.3-7.31q13.3-7.31,18.18-19.3l43.1,12q-10.87,22.49-34.67,36.92T1549.79,581Zm51-118.43q-1.88-22.11-16.3-35.42t-35-13.3a50,50,0,0,0-18.93,3.56,49.47,49.47,0,0,0-15.55,9.93,51.46,51.46,0,0,0-11.06,15.37,54.09,54.09,0,0,0-5.06,19.86Z"/><path class="c" d="M1916.17,380.85h47.6l-82.08,196.38h-41.23L1806.74,491l-33.35,86.2h-41.22l-81.7-196.38h47.22L1756.14,530l24-63.71-34.48-85.07h40.48l20.61,60.34,21-60.34h40.48l-34.1,85.07L1857.71,530Z"/><path class="c" d="M1983.93,353.49V303.65h50.22v49.84Zm0,223.74V380.85h50.22V577.23Z"/><path class="c" d="M2088.9,577.23V429.57H2063V391.34h25.86v-12q0-36.73,17.61-58.09t48-21.36q24,0,48.35,11.62l-10.12,37.85a63.3,63.3,0,0,0-13.3-5.06,54.8,54.8,0,0,0-14.05-2.06q-26.24,0-26.23,35.23v13.87h48v38.23h-48V577.23Z"/><path class="c" d="M2224.07,615.46a97.35,97.35,0,0,0,12.37,2.81,67.84,67.84,0,0,0,10.12.94,21.53,21.53,0,0,0,9-1.87,19.32,19.32,0,0,0,7.5-6.56,64.25,64.25,0,0,0,6.75-12.93q3.37-8.25,7.12-20.61l-77.58-196.38h51.72l53.22,152.91,47.22-152.91h47.22l-82.45,235.36a70.39,70.39,0,0,1-24.36,33.73q-17.24,13.11-42.72,13.12a81.68,81.68,0,0,1-12.18-.94,78.05,78.05,0,0,1-12.93-3.19Z"/></svg>