<?xml version="1.0" standalone="no"?>
<!DOCTYPE svg PUBLIC "-//W3C//DTD SVG 20010904//EN"
 "http://www.w3.org/TR/2001/REC-SVG-20010904/DTD/svg10.dtd">
<svg version="1.0" xmlns="http://www.w3.org/2000/svg"
 width="673.000000pt" height="673.000000pt" viewBox="0 0 673.000000 673.000000"
 preserveAspectRatio="xMidYMid meet">
<metadata>
Created by potrace 1.11, written by Peter Selinger 2001-2013
</metadata>
<g transform="translate(0.000000,673.000000) scale(0.100000,-0.100000)"
fill="#000000" stroke="none">
<path d="M3150 6684 c-19 -2 -84 -9 -145 -15 -870 -86 -1710 -553 -2258 -1254
-187 -239 -370 -559 -480 -840 -267 -680 -300 -1437 -95 -2153 155 -542 505
-1111 916 -1490 665 -612 1505 -929 2382 -899 645 23 1210 203 1735 552 746
497 1254 1252 1429 2125 45 227 60 393 59 665 -1 385 -47 675 -163 1025 -271
821 -830 1486 -1602 1904 -334 180 -739 308 -1149 361 -108 15 -554 28 -629
19z m345 -1234 c976 -66 1797 -810 1940 -1755 54 -357 9 -815 -109 -1100 -14
-35 -30 -59 -38 -58 -7 2 -422 176 -923 388 -500 212 -1008 427 -1128 478
l-217 92 502 6 c277 3 605 7 730 8 l228 1 -6 33 c-60 340 -299 642 -639 807
-250 121 -527 144 -791 65 -18 -6 -41 27 -199 297 -99 167 -212 358 -252 426
-40 68 -71 127 -68 132 7 12 138 61 260 99 138 42 292 71 432 80 65 5 120 9
123 9 3 1 73 -3 155 -8z m-1825 -1447 c94 -39 644 -274 647 -277 1 -1 -10 -56
-24 -121 -56 -266 -26 -501 97 -745 162 -321 464 -539 818 -590 80 -12 285 -9
372 6 l35 6 254 -432 c144 -245 250 -435 245 -439 -24 -23 -254 -89 -404 -117
-115 -21 -438 -30 -571 -15 -808 92 -1513 657 -1763 1413 -66 200 -87 327 -93
563 -5 215 6 352 43 535 18 87 60 239 80 286 l14 33 82 -35 c46 -20 121 -52
168 -71z"/>
</g>
</svg>
