<svg xmlns="http://www.w3.org/2000/svg" xmlns:xlink="http://www.w3.org/1999/xlink" viewBox="0 0 2644 912"><defs><linearGradient id="a" x1="906.03" y1="-38.52" x2="300.3" y2="852.87" gradientUnits="userSpaceOnUse"><stop offset="0" stop-color="#cd3b43"/><stop offset="1" stop-color="#51014b"/></linearGradient><clipPath id="b"><circle cx="569.98" cy="456" r="332.94" style="fill:none"/></clipPath><linearGradient id="c" x1="569.63" y1="126.84" x2="476.1" y2="750.78" xlink:href="#a"/><linearGradient id="d" x1="669.46" y1="141.8" x2="575.94" y2="765.75" xlink:href="#a"/></defs><title>1.16.17</title><circle cx="569.98" cy="456" r="332.94" style="fill:url(#a)"/><path d="M435.62,377.43h0l0,.19.07-.19Z" style="fill:#fff"/><g style="clip-path:url(#b)"><polygon points="871.43 458.82 767.16 714.02 711.98 583.78 762.29 460.85 735.11 460.85 694.13 563.09 653.56 460.85 626.78 460.85 677.09 583.78 622.32 714.02 517.64 458.82 465.07 335.01 519.21 204.78 623.48 459.98 654.32 459.98 532.2 171.91 507.04 171.91 446.59 313.28 385.73 171.91 360.98 171.91 239.26 459.98 269.69 459.98 374.37 204.78 429.14 335.01 378.83 457.95 405.61 457.95 446.18 355.71 487.21 458.82 608.93 746.88 633.68 746.88 694.54 604.47 754.99 746.88 780.14 746.88 902.27 458.82 871.43 458.82" style="fill:#fff;opacity:0.2"/><path d="M594.31,586.09A105.43,105.43,0,0,1,570,588.93c-58.08,0-107.47-44.23-111-109.83-.45-8.22,4.19-29.5,6-37.19l-89.81-38.25c-9.16,23.17-14.19,53.68-14.19,80.11,0,112.55,96.5,203.79,209.05,203.79a203.24,203.24,0,0,0,75.55-14.47Z" style="fill:url(#c)"/><path d="M570,269.11a203.05,203.05,0,0,0-84.84,18.45l50.58,85.89A105,105,0,0,1,570,367.74c51.41,0,105.91,43.11,111.17,96.15l-146.22.64,228,96.6c11.9-25.88,15.82-56.18,15.82-86.53C778.72,362,682.54,269.11,570,269.11Z" style="fill:url(#d)"/><path d="M435.62,377.43h0l0,.19.07-.19Z" style="fill:#fff"/><path d="M594.31,563.76A105.43,105.43,0,0,1,570,566.59c-58.08,0-107.47-44.23-111-109.83-.45-8.22,4.19-29.49,6-37.19l-89.81-38.25C366,404.49,360.93,435,360.93,461.43c0,112.55,96.5,203.79,209.05,203.79a203.24,203.24,0,0,0,75.55-14.47Z" style="fill:#fff"/><path d="M570,246.78a203.05,203.05,0,0,0-84.84,18.45l50.58,85.89A105,105,0,0,1,570,345.41c51.41,0,105.91,43.11,111.17,96.15l-146.22.64,228,96.6c11.9-25.89,15.82-56.18,15.82-86.53C778.72,339.71,682.54,246.78,570,246.78Z" style="fill:#fff"/></g><text transform="translate(1113.53 577.23)" style="font-size:374.77252197265625px;fill:#fff;font-family:Raleway-Bold, Raleway;font-weight:700;letter-spacing:-0.004900107861653708em">M<tspan x="322.34" y="0" style="letter-spacing:-0.028400040193652627em">e</tspan><tspan x="536.18" y="0" style="letter-spacing:-0.008198983986542618em">w</tspan><tspan x="847.54" y="0" style="letter-spacing:-0.006900018940525934em">i</tspan><tspan x="940.52" y="0" style="letter-spacing:0.011699805529819278em">f</tspan><tspan x="1083.57" y="0" style="letter-spacing:0.00999955539436113em">y</tspan></text></svg>